<?xml version="1.0" encoding="UTF-8"?>
<svg width="244px" height="166px" viewBox="0 0 244 166" version="1.1" xmlns="http://www.w3.org/2000/svg" xmlns:xlink="http://www.w3.org/1999/xlink">
    <title>Fill 7</title>
    <g id="Page-1" stroke="none" stroke-width="1" fill="none" fill-rule="evenodd">
        <g id="twms5.com-home" transform="translate(-598.000000, -245.000000)" fill="#EF514C">
            <path d="M806.250119,402.305344 L765.375819,330.875318 L775.791099,312.676845 L827.078157,402.305344 L806.250119,402.305344 Z M724.501519,402.305344 L760.402712,339.56743 L796.303905,402.305344 L724.501519,402.305344 Z M692.789135,402.305344 L664.483784,352.834606 L716.239907,262.386768 L755.429605,330.875318 L714.555305,402.305344 L692.789135,402.305344 Z M612.921843,402.305344 L647.882382,341.208651 L654.535048,352.83715 L659.508155,361.526718 L682.842921,402.305344 L612.921843,402.305344 Z M775.791099,295.290076 L760.402712,322.183206 L716.239907,245 L659.508155,344.142494 L647.882382,323.821883 L598,411 L842,411 L775.791099,295.290076 Z" id="Fill-7"></path>
        </g>
    </g>
</svg>