<?xml version="1.0" encoding="UTF-8"?>
<svg width="143px" height="185px" viewBox="0 0 143 185" version="1.1" xmlns="http://www.w3.org/2000/svg" xmlns:xlink="http://www.w3.org/1999/xlink">
    <title>full logo</title>
    <g id="Page-1" stroke="none" stroke-width="1" fill="none" fill-rule="evenodd">
        <g id="twms5.com-home" transform="translate(-649.000000, -6590.000000)">
            <g id="Group" transform="translate(649.000000, 6590.000000)">
                <path d="M68.9820317,0 L36.2171032,57.5216962 L29.5001337,45.733796 L0.690821256,96.3108614 L141.618357,96.3108614 L103.377705,29.1778946 L94.4904507,44.7814246 L68.9820317,0 Z M39.0890926,62.5646563 L68.9820317,10.0874564 L91.6169457,49.8243848 L68.0090411,91.2663652 L55.4389723,91.2663652 L39.0890926,62.5646563 Z M97.3624401,49.8243848 L103.377705,39.266887 L133.000874,91.2663652 L120.970345,91.2663652 L97.3624401,49.8243848 Z M94.4904507,54.8673449 L115.226366,91.2663652 L73.756051,91.2663652 L94.4904507,54.8673449 Z M29.5001337,55.8197163 L33.3435982,62.5646563 L36.2155876,67.6091525 L49.6919623,91.2663652 L9.30830511,91.2663652 L29.5001337,55.8197163 Z" id="Fill-1" fill="#EF514C"></path>
                <polygon id="Fill-2" fill="#E3E4E4" points="0.690821256 115.018727 0.690821256 117.443076 2.86818196 117.443076 2.86818196 124.719101 5.42167311 124.719101 5.42167311 117.443076 7.59903382 117.443076 7.59903382 115.018727"></polygon>
                <polygon id="Fill-3" fill="#E3E4E4" points="17.2705314 115.018727 17.2705314 124.719101 14.845732 124.719101 14.845732 120.969977 12.0977209 120.969977 12.0977209 124.719101 9.67149758 124.719101 9.67149758 115.018727 12.0977209 115.018727 12.0977209 118.544511 14.845732 118.544511 14.845732 115.018727"></polygon>
                <polygon id="Fill-4" fill="#E3E4E4" points="21.8964863 117.425206 21.8964863 118.711838 25.1632766 118.711838 25.1632766 120.988761 21.8964863 120.988761 21.8964863 122.312622 26.2512077 122.312622 26.2512077 124.719101 19.3429952 124.719101 19.3429952 115.018727 26.2512077 115.018727 26.2512077 117.425206"></polygon>
                <polygon id="Fill-5" fill="#E3E4E4" points="60.7922705 109.475655 55.9421698 130.955056 51.9870814 130.955056 47.6659196 118.85132 43.3447577 130.955056 39.3911636 130.955056 34.5410628 109.475655 40.2069846 109.475655 42.2853857 119.968588 45.7503838 109.475655 49.5829495 109.475655 53.0882904 119.968588 55.1263488 109.475655"></polygon>
                <path d="M77.6918663,120.519946 C77.6918663,117.115498 76.0075264,114.957471 73.3119649,114.957471 C70.5314917,114.957471 68.7637838,117.156589 68.7637838,120.64474 C68.7637838,124.049188 70.4898077,126.167647 73.2702809,126.167647 C75.9658424,126.167647 77.6918663,124.008097 77.6918663,120.519946 M83.589372,120.271879 C83.589372,127.162957 79.5043458,131.64794 73.1853692,131.64794 C66.9513043,131.64794 62.8647343,127.371454 62.8647343,120.769535 C62.8647343,113.918026 66.9929883,109.475655 73.3968766,109.475655 C79.5892575,109.475655 83.589372,113.71105 83.589372,120.271879" id="Fill-6" fill="#E3E4E4"></path>
                <path d="M95.217248,119.926935 C97.3544123,119.926935 99.1996562,119.926935 99.1996562,117.324335 C99.1996562,114.762613 97.229962,114.762613 95.217248,114.762613 L92.7436072,114.762613 L92.7436072,119.926935 L95.217248,119.926935 Z M99.1996562,130.955056 L95.1327448,124.882322 L93.3720042,124.882322 L92.7436072,124.882322 L92.7436072,130.955056 L87.0434783,130.955056 L87.0434783,109.475655 L93.6239775,109.475655 C98.2347826,109.475655 105.067255,109.475655 105.067255,117.159307 C105.067255,121.124525 103.182064,123.02462 100.749907,123.975424 L105.695652,130.955056 L99.1996562,130.955056 Z" id="Fill-8" fill="#E3E4E4"></path>
                <polygon id="Fill-10" fill="#E3E4E4" points="120.202899 125.585206 120.202899 130.955056 108.458937 130.955056 108.458937 109.475655 113.965774 109.475655 113.965774 125.585206"></polygon>
                <path d="M134.389438,120.091215 C134.389438,114.80463 130.713263,114.80463 128.0813,114.80463 L127.955749,114.80463 L127.955749,125.626082 L128.37374,125.626082 C131.129723,125.626082 134.389438,125.626082 134.389438,120.091215 M140.236715,120.091215 C140.236715,130.955056 131.549245,130.955056 128.29106,130.955056 L122.275362,130.955056 L122.275362,109.475655 L127.997089,109.475655 C131.089914,109.475655 140.236715,109.475655 140.236715,120.091215" id="Fill-12" fill="#E3E4E4"></path>
                <polygon id="Fill-14" fill="#E3E4E4" points="22.7971014 136.498127 22.7971014 157.977528 17.0773986 157.977528 17.0773986 146.99106 12.1979216 154.837672 10.5991799 154.837672 5.72124457 146.94867 5.72124457 157.977528 0 157.977528 0 136.498127 5.678077 136.498127 11.3977799 145.710289 17.1190244 136.498127"></polygon>
                <polygon id="Fill-16" fill="#E3E4E4" points="26.942029 157.977528 32.468599 157.977528 32.468599 136.498127 26.942029 136.498127"></polygon>
                <path d="M35.2318841,155.443596 L37.5658367,150.751637 C39.3279333,152.039148 41.4142318,152.745301 43.1358033,152.745301 C44.6907711,152.745301 45.4277297,152.288737 45.4277297,151.582584 C45.4277297,149.133877 35.8052409,148.966471 35.8052409,142.075393 C35.8052409,138.462448 38.7110494,135.805243 43.4209808,135.805243 C46.493393,135.805243 48.704269,136.760985 50.7920684,138.170247 L48.5391662,142.780024 C46.9841984,141.825805 45.2641279,141.035949 43.3804555,141.035949 C42.07014,141.035949 41.4967832,141.533604 41.4967832,142.114962 C41.4967832,144.648894 51.1207729,144.190808 51.1207729,151.45779 C51.1207729,155.484687 48.1309121,157.977528 43.3804555,157.977528 C40.2269929,157.977528 37.4007339,157.062878 35.2318841,155.443596" id="Fill-18" fill="#E3E4E4"></path>
                <path d="M53.884058,155.443596 L56.2195115,150.751637 C57.9801073,152.039148 60.0679067,152.745301 61.7879772,152.745301 C63.3444459,152.745301 64.0814046,152.288737 64.0814046,151.582584 C64.0814046,149.133877 54.4574148,148.966471 54.4574148,142.075393 C54.4574148,138.462448 57.3647243,135.805243 62.0746556,135.805243 C65.1455669,135.805243 67.3579438,136.760985 69.4457432,138.170247 L67.1928411,142.780024 C65.6363723,141.825805 63.9178027,141.035949 62.0341304,141.035949 C60.7238149,141.035949 60.150458,141.533604 60.150458,142.114962 C60.150458,144.648894 69.7729469,144.190808 69.7729469,151.45779 C69.7729469,155.484687 66.784587,157.977528 62.0341304,157.977528 C58.8806677,157.977528 56.0544087,157.062878 53.884058,155.443596" id="Fill-19" fill="#E3E4E4"></path>
                <polygon id="Fill-20" fill="#E3E4E4" points="73.2270531 157.977528 78.7536232 157.977528 78.7536232 136.498127 73.2270531 136.498127"></polygon>
                <path d="M97.0359661,146.849534 C97.0359661,143.445086 95.3499567,141.287059 92.6541944,141.287059 C89.875058,141.287059 88.1056745,143.486177 88.1056745,146.974328 C88.1056745,150.378776 89.8333709,152.497235 92.6140513,152.497235 C95.3098136,152.497235 97.0359661,150.337685 97.0359661,146.849534 M102.932367,146.601467 C102.932367,153.492545 98.8470366,157.977528 92.5291332,157.977528 C86.2946039,157.977528 82.2077295,153.701042 82.2077295,147.099123 C82.2077295,140.247614 86.336291,135.805243 92.7391124,135.805243 C98.9319547,135.805243 102.932367,140.040638 102.932367,146.601467" id="Fill-21" fill="#E3E4E4"></path>
                <polygon id="Fill-22" fill="#E3E4E4" points="124.347826 136.498127 124.347826 157.977528 118.654836 157.977528 112.121187 147.361969 112.121187 157.977528 106.386473 157.977528 106.386473 136.498127 112.121187 136.498127 118.613112 147.071297 118.613112 136.498127"></polygon>
                <path d="M127.111111,155.443596 L129.445064,150.751637 C131.20716,152.039148 133.293459,152.745301 135.01503,152.745301 C136.569998,152.745301 137.306957,152.288737 137.306957,151.582584 C137.306957,149.133877 127.684468,148.966471 127.684468,142.075393 C127.684468,138.462448 130.590276,135.805243 135.300208,135.805243 C138.37262,135.805243 140.583496,136.760985 142.671295,138.170247 L140.418393,142.780024 C138.863425,141.825805 137.143355,141.035949 135.259683,141.035949 C133.949367,141.035949 133.37601,141.533604 133.37601,142.114962 C133.37601,144.648894 143,144.190808 143,151.45779 C143,155.484687 140.010139,157.977528 135.259683,157.977528 C132.10622,157.977528 129.279961,157.062878 127.111111,155.443596" id="Fill-23" fill="#E3E4E4"></path>
                <path d="M12.4347826,182.466068 L14.7687352,177.774109 C16.5308319,179.06162 18.6171304,179.767773 20.3387018,179.767773 C21.8936696,179.767773 22.6306283,179.311209 22.6306283,178.605056 C22.6306283,176.156349 13.0081395,175.988942 13.0081395,169.097865 C13.0081395,165.48492 15.913948,162.827715 20.6238793,162.827715 C23.6962915,162.827715 25.9071675,163.783457 27.9949669,165.192718 L25.7420648,169.802496 C24.187097,168.848277 22.4670265,168.05842 20.5833541,168.05842 C19.2730386,168.05842 18.6996817,168.556076 18.6996817,169.137434 C18.6996817,171.671366 28.3236715,171.21328 28.3236715,178.480262 C28.3236715,182.507159 25.3338107,185 20.5833541,185 C17.4298915,185 14.6036325,184.08535 12.4347826,182.466068" id="Fill-24" fill="#E3E4E4"></path>
                <path d="M36.8216704,162.827715 L36.8216704,174.903045 C36.8216704,176.923053 36.8216704,179.362482 40.1101294,179.362482 C43.3135953,179.362482 43.3135953,176.923053 43.3135953,174.903045 L43.3135953,162.827715 L49.0483092,162.827715 L49.0483092,174.312462 C49.0483092,178.142767 49.0483092,185 40.0684055,185 C31.0869565,185 31.0869565,178.142767 31.0869565,174.312462 L31.0869565,162.827715 L36.8216704,162.827715 Z" id="Fill-25" fill="#E3E4E4"></path>
                <polygon id="Fill-26" fill="#E3E4E4" points="75.9903382 162.827715 75.9903382 184.307116 70.2690936 184.307116 70.2690936 173.320648 65.3911583 181.16726 63.7924166 181.16726 58.9129396 173.278258 58.9129396 184.307116 53.1932367 184.307116 53.1932367 162.827715 58.8713137 162.827715 64.5910166 172.039877 70.3107195 162.827715"></polygon>
                <polygon id="Fill-27" fill="#E3E4E4" points="102.241546 162.827715 102.241546 184.307116 96.5203013 184.307116 96.5203013 173.320648 91.642366 181.16726 90.0436243 181.16726 85.1641473 173.278258 85.1641473 184.307116 79.4444444 184.307116 79.4444444 162.827715 85.1225214 162.827715 90.8422243 172.039877 96.5619272 162.827715"></polygon>
                <polygon id="Fill-28" fill="#E3E4E4" points="106.386473 184.307116 111.913043 184.307116 111.913043 162.827715 106.386473 162.827715"></polygon>
                <polygon id="Fill-29" fill="#E3E4E4" points="129.874396 168.197566 125.083372 168.197566 125.083372 184.307116 119.465839 184.307116 119.465839 168.197566 114.676329 168.197566 114.676329 162.827715 129.874396 162.827715"></polygon>
                <polygon id="Fill-30" fill="#EF514C" points="0 110.86073 28.3236715 110.86073 28.3236715 109.476348 0 109.476348"></polygon>
                <polygon id="Fill-31" fill="#EF514C" points="0 130.261479 28.3236715 130.261479 28.3236715 128.877097 0 128.877097"></polygon>
            </g>
        </g>
    </g>
</svg>