<?xml version="1.0" encoding="UTF-8"?>
<svg width="74px" height="97px" viewBox="0 0 74 97" version="1.1" xmlns="http://www.w3.org/2000/svg" xmlns:xlink="http://www.w3.org/1999/xlink">
    <title>icon group</title>
    <g id="Page-1" stroke="none" stroke-width="1" fill="none" fill-rule="evenodd">
        <g id="twms5.com-home" transform="translate(-683.000000, -864.000000)" fill="#E3E4E4">
            <g id="icon-group" transform="translate(683.000000, 864.000000)">
                <path d="M63.5864225,94 L51,72.4821712 L54.207177,67 L70,94 L63.5864225,94 Z M38,94 L49,75 L60,94 L38,94 Z M28.7145274,94 L20,79.1501418 L35.934448,52 L48,72.5585219 L35.4158001,94 L28.7145274,94 Z M5,94 L15.5,76 L17.4980524,79.4259298 L18.9916685,81.9860064 L26,94 L5,94 Z M53.9202514,62.1476134 L49.2532815,70.2479536 L35.859644,47 L18.6541125,76.8621969 L15.1282634,70.741531 L0,97 L74,97 L53.9202514,62.1476134 Z" id="Fill-7" transform="translate(37.000000, 72.000000) rotate(-180.000000) translate(-37.000000, -72.000000) "></path>
                <path d="M63.5864225,47 L51,25.4821712 L54.207177,20 L70,47 L63.5864225,47 Z M38,47 L49,28 L60,47 L38,47 Z M28.7145274,47 L20,32.1501418 L35.934448,5 L48,25.5585219 L35.4158001,47 L28.7145274,47 Z M5,47 L15.5,29 L17.4980524,32.4259298 L18.9916685,34.9860064 L26,47 L5,47 Z M53.9202514,15.1476134 L49.2532815,23.2479536 L35.859644,0 L18.6541125,29.8621969 L15.1282634,23.741531 L0,50 L74,50 L53.9202514,15.1476134 Z" id="Fill-7"></path>
            </g>
        </g>
    </g>
</svg>