<?xml version="1.0" encoding="UTF-8"?>
<svg width="178px" height="50px" viewBox="0 0 178 50" version="1.1" xmlns="http://www.w3.org/2000/svg" xmlns:xlink="http://www.w3.org/1999/xlink">
    <title>menu logo</title>
    <defs>
        <polygon id="path-1" points="0.214796308 0.18424 19.4702178 0.18424 19.4702178 26.6777778 0.214796308 26.6777778"></polygon>
        <polygon id="path-3" points="0 0.53655 71.3416745 0.53655 71.3416745 48.6246056 0 48.6246056"></polygon>
    </defs>
    <g id="Page-1" stroke="none" stroke-width="1" fill="none" fill-rule="evenodd">
        <g id="twms5.com-home" transform="translate(-47.000000, -25.000000)">
            <g id="menu-logo" transform="translate(47.000000, 25.000000)">
                <polygon id="Fill-1" fill="#E3E4E4" points="73 23 73 29.5004115 78.6734755 29.5004115 78.6734755 49 85.3259878 49 85.3259878 29.5004115 91 29.5004115 91 23"></polygon>
                <polygon id="Fill-2" fill="#E3E4E4" points="118.093431 23 115.608571 35.7001372 111.335179 23 106.664821 23 102.441595 35.7001372 99.9076595 23 93 23 98.9130613 49 103.733373 49 109.000273 34.3503429 114.267717 49 119.087484 49 125 23"></polygon>
                <polygon id="Fill-3" fill="#E3E4E4" points="148.274873 23 141.500547 34.1500686 134.725127 23 128 23 128 49 134.77542 49 134.77542 35.6502058 140.553715 45.2002743 142.446831 45.2002743 148.225127 35.7001372 148.225127 49 155 49 155 23"></polygon>
                <g id="Group-10">
                    <g id="Group-6" transform="translate(157.393846, 22.322222)">
                        <mask id="mask-2" fill="white">
                            <use xlink:href="#path-1"></use>
                        </mask>
                        <g id="Clip-5"></g>
                        <path d="M0.214796308,23.6514289 L3.042984,18.0452844 C5.17733169,19.5827956 7.708704,20.4266844 9.79294708,20.4266844 C11.6789502,20.4266844 12.5715748,19.8806067 12.5715748,19.0372622 C12.5715748,16.1103289 0.909180923,15.9116067 0.909180923,7.67634 C0.909180923,3.35944 4.43284246,0.18424 10.1404117,0.18424 C13.8628578,0.18424 16.5423655,1.32594 19.0731932,3.01262889 L16.3435809,8.51968444 C14.4575778,7.37852889 12.3733348,6.43609556 10.0908517,6.43609556 C8.50275323,6.43609556 7.80727938,7.03117333 7.80727938,7.72588444 C7.80727938,10.7524511 19.4702178,10.2063733 19.4702178,18.8886289 C19.4702178,23.7009733 15.8474363,26.6779956 10.0908517,26.6779956 C6.26928554,26.6779956 2.844744,25.5863844 0.214796308,23.6514289" id="Fill-4" fill="#E3E4E4" mask="url(#mask-2)"></path>
                    </g>
                    <g id="Group-9">
                        <mask id="mask-4" fill="white">
                            <use xlink:href="#path-3"></use>
                        </mask>
                        <g id="Clip-8"></g>
                        <path d="M60.889416,46.10655 L48.9389206,25.4133056 L51.9833206,20.1419944 L66.9793052,46.10655 L60.889416,46.10655 Z M36.987336,46.10655 L47.4847975,27.9313611 L57.9811698,46.10655 L36.987336,46.10655 Z M27.7152591,46.10655 L19.4387391,31.7756833 L34.5719668,5.57320556 L46.0301298,25.4133056 L34.0790898,46.10655 L27.7152591,46.10655 Z M4.362696,46.10655 L14.5851268,28.4072056 L16.5299483,31.7756833 L17.984616,34.2937389 L24.8070129,46.10655 L4.362696,46.10655 Z M51.9833206,15.1053389 L47.4847975,22.89525 L34.5719668,0.53655 L17.984616,29.2576278 L14.5851268,23.37055 L-0.000217846154,48.6246056 L71.3416745,48.6246056 L51.9833206,15.1053389 Z" id="Fill-7" fill="#EF514C" mask="url(#mask-4)"></path>
                    </g>
                </g>
            </g>
        </g>
    </g>
</svg>