<?xml version="1.0" encoding="UTF-8"?>
<svg width="1409px" height="959px" viewBox="0 0 1409 959" version="1.1" xmlns="http://www.w3.org/2000/svg" xmlns:xlink="http://www.w3.org/1999/xlink">
    <title>summit background logo</title>
    <g id="Page-1" stroke="none" stroke-width="1" fill="none" fill-rule="evenodd" opacity="0.0544317336">
        <g id="twms5.com-home" transform="translate(123.000000, -943.000000)" fill="#E3E4E4">
            <g id="summit-background-logo" transform="translate(-123.000000, 943.000000)">
                <path d="M1202.55909,908.770027 L966.526759,496.111024 L1026.67073,390.976471 L1322.83247,908.770027 L1202.55909,908.770027 Z M730.494429,908.770027 L937.809103,546.326298 L1145.12378,908.770027 L730.494429,908.770027 Z M547.368409,908.770027 L383.916603,622.972209 L682.787006,100.445247 L909.091448,496.111024 L673.059119,908.770027 L547.368409,908.770027 Z M86.167528,908.770027 L288.050313,555.807811 L326.46673,622.986909 L355.184385,673.187483 L489.933098,908.770027 L86.167528,908.770027 Z M1026.67073,290.531224 L937.809103,445.895751 L682.787006,0 L355.184385,572.756936 L288.050313,455.362565 L0,959 L1409,959 L1026.67073,290.531224 Z" id="Fill-7"></path>
            </g>
        </g>
    </g>
</svg>