<?xml version="1.0" encoding="UTF-8"?>
<svg width="418px" height="419px" viewBox="0 0 418 419" version="1.1" xmlns="http://www.w3.org/2000/svg" xmlns:xlink="http://www.w3.org/1999/xlink">
    <title>WLM logo</title>
    <defs>
        <polygon id="path-1" points="0 418 418 418 418 0 0 0"></polygon>
    </defs>
    <g id="Page-1" stroke="none" stroke-width="1" fill="none" fill-rule="evenodd">
        <g id="twms5.com-home" transform="translate(-226.000000, -4634.000000)">
            <g id="WLM-logo" transform="translate(226.000000, 4634.210938)">
                <path d="M406,209.5 C406,318.023656 318.023656,406 209.5,406 C100.976344,406 13,318.023656 13,209.5 C13,100.976344 100.976344,13 209.5,13 C318.023656,13 406,100.976344 406,209.5" id="Fill-1" fill="#949491"></path>
                <path d="M209,2.27173913 C95.0098098,2.27173913 2.27173913,95.0098098 2.27173913,209 C2.27173913,322.99019 95.0098098,415.728261 209,415.728261 C322.99019,415.728261 415.728261,322.99019 415.728261,209 C415.728261,95.0098098 322.99019,2.27173913 209,2.27173913 M209,418 C93.7569457,418 0,324.243054 0,209 C0,93.7569457 93.7569457,0 209,0 C324.243054,0 418,93.7569457 418,209 C418,324.243054 324.243054,418 209,418" id="Fill-3" fill="#949491"></path>
                <path d="M209.5,38.9392523 C115.452804,38.9392523 38.9392523,115.452804 38.9392523,209.5 C38.9392523,303.547196 115.452804,380.060748 209.5,380.060748 C303.547196,380.060748 380.060748,303.547196 380.060748,209.5 C380.060748,115.452804 303.547196,38.9392523 209.5,38.9392523 M209.5,381.197819 C114.82514,381.197819 37.8021807,304.17486 37.8021807,209.5 C37.8021807,114.82514 114.82514,37.8021807 209.5,37.8021807 C304.17486,37.8021807 381.197819,114.82514 381.197819,209.5 C381.197819,304.17486 304.17486,381.197819 209.5,381.197819 M209.5,28.1370717 C109.495685,28.1370717 28.1370717,109.495685 28.1370717,209.5 C28.1370717,309.503178 109.495685,390.862928 209.5,390.862928 C309.503178,390.862928 390.862928,309.503178 390.862928,209.5 C390.862928,109.495685 309.503178,28.1370717 209.5,28.1370717 M209.5,392 C108.869159,392 27,310.130841 27,209.5 C27,108.869159 108.869159,27 209.5,27 C310.130841,27 392,108.869159 392,209.5 C392,310.130841 310.130841,392 209.5,392" id="Fill-5" fill="#FFFFFF"></path>
                <polygon id="Fill-7" fill="#FFFFFF" points="106.000572 143.703399 98.6504218 207 87.8002002 207 78 126 87.2168549 126 93.2836455 190.336909 101.215997 126 110.784003 126 118.600829 190.336909 124.784289 126 134 126 124.1998 207 113.350722 207"></polygon>
                <polygon id="Fill-9" fill="#FFFFFF" points="158.132144 198.321307 173 198.321307 173 207 149 207 149 126 173 126 173 134.678693 158.132144 134.678693 158.132144 161.871931 171.010809 161.871931 171.010809 170.203476 158.132144 170.203476"></polygon>
                <polygon id="Fill-11" fill="#FFFFFF" points="212 126 221.100496 126 221.100496 198.321307 233 198.321307 233 207 212 207"></polygon>
                <mask id="mask-2" fill="white">
                    <use xlink:href="#path-1"></use>
                </mask>
                <g id="Clip-14"></g>
                <polygon id="Fill-13" fill="#FFFFFF" mask="url(#mask-2)" points="246 207 255 207 255 126 246 126"></polygon>
                <polygon id="Fill-15" fill="#FFFFFF" mask="url(#mask-2)" points="290.257143 207 279.742857 207 269 126 278.142857 126 285.00112 190.452625 291.858263 126 301 126"></polygon>
                <polygon id="Fill-16" fill="#FFFFFF" mask="url(#mask-2)" points="324.132144 198.321307 339 198.321307 339 207 315 207 315 126 339 126 339 134.678693 324.132144 134.678693 324.132144 161.871931 337.010809 161.871931 337.010809 170.203476 324.132144 170.203476"></polygon>
                <path d="M91.8901501,225 L99.95344,277.556094 L108.10985,225 L117,225 L117,290 L110.401947,290 L110.401947,267.806264 C110.401947,266.012487 110.41541,263.845858 110.447946,261.305241 C110.478238,258.769172 110.521993,256.200136 110.585943,253.599272 C110.645405,250.999545 110.705989,248.493031 110.767695,246.078593 C110.829401,243.664154 110.889985,241.653259 110.951691,240.042497 L103.343904,290 L96.6538525,290 L89.0483089,239.949284 C89.0483089,241.86924 89.0628939,243.989262 89.0943079,246.310488 C89.1245999,248.631713 89.1863059,251.031374 89.2783039,253.507196 C89.3680581,255.984156 89.4443491,258.444064 89.5060551,260.889194 C89.5677611,263.335461 89.5980531,265.640772 89.5980531,267.806264 L89.5980531,290 L83,290 L83,225 L91.8901501,225 Z" id="Fill-17" fill="#FFFFFF" mask="url(#mask-2)"></path>
                <polygon id="Fill-18" fill="#FFFFFF" mask="url(#mask-2)" points="131 290 138 290 138 225 131 225"></polygon>
                <path d="M165.647986,272.644925 C165.647986,269.542873 165.253324,267.093585 164.469771,265.293643 C163.682756,263.49484 162.724951,262.0059 161.592895,260.826824 C160.461994,259.648887 159.204154,258.624743 157.822839,257.75553 C156.440369,256.887457 155.183684,255.833693 154.051628,254.590822 C152.920727,253.351368 151.962922,251.784963 151.178215,249.891606 C150.3912,248.000527 150,245.441875 150,242.21451 L150,236.445582 C150,234.770952 150.170789,233.234166 150.518138,231.83978 C150.862024,230.443116 151.475942,229.234421 152.354122,228.209137 C153.235763,227.186132 154.412824,226.394386 155.891074,225.836176 C157.367016,225.279105 159.23762,225 161.498269,225 C163.761226,225 165.629522,225.279105 167.108926,225.836176 C168.584868,226.394386 169.761929,227.186132 170.642416,228.209137 C171.52175,229.234421 172.134514,230.443116 172.481862,231.83978 C172.826903,233.234166 173,234.770952 173,236.445582 L173,243.611174 L165.647986,243.611174 L165.647986,236.445582 C165.647986,235.019298 165.364106,233.840222 164.798655,232.909493 C164.232051,231.978763 163.132306,231.513968 161.498269,231.513968 C159.864232,231.513968 158.764487,231.978763 158.199037,232.909493 C157.635894,233.840222 157.352014,235.019298 157.352014,236.445582 L157.352014,241.935405 C157.352014,244.541904 157.743214,246.605002 158.530229,248.1247 C159.314937,249.645538 160.275049,250.91575 161.403643,251.938755 C162.535698,252.964039 163.793538,253.909578 165.174853,254.777651 C166.556169,255.646864 167.814008,256.778093 168.94491,258.174757 C170.076966,259.570282 171.03477,261.371363 171.821785,263.571166 C172.605338,265.774387 173,268.705558 173,272.36582 L173,280.554418 C173,282.230187 172.826903,283.765834 172.481862,285.16022 C172.134514,286.556884 171.52175,287.766718 170.642416,288.790863 C169.761929,289.813868 168.584868,290.605614 167.108926,291.163824 C165.629522,291.722034 163.761226,292 161.498269,292 C159.23762,292 157.367016,291.722034 155.891074,291.163824 C154.412824,290.605614 153.235763,289.813868 152.354122,288.790863 C151.475942,287.766718 150.862024,286.556884 150.518138,285.16022 C150.170789,283.765834 150,282.230187 150,280.554418 L150,272.459235 L157.352014,272.459235 L157.352014,280.554418 C157.352014,281.981841 157.635894,283.159778 158.199037,284.090507 C158.764487,285.021237 159.864232,285.486032 161.498269,285.486032 C163.132306,285.486032 164.232051,285.021237 164.798655,284.090507 C165.364106,283.159778 165.647986,281.981841 165.647986,280.554418 L165.647986,272.644925 Z" id="Fill-19" fill="#FFFFFF" mask="url(#mask-2)"></path>
                <path d="M200.647986,272.644925 C200.647986,269.542873 200.253324,267.093585 199.469771,265.293643 C198.682756,263.49484 197.724951,262.0059 196.592895,260.826824 C195.461994,259.648887 194.204154,258.624743 192.822839,257.75553 C191.441523,256.887457 190.183684,255.833693 189.051628,254.590822 C187.920727,253.351368 186.962922,251.784963 186.178215,249.891606 C185.3912,248.000527 185,245.441875 185,242.21451 L185,236.445582 C185,234.770952 185.170789,233.234166 185.518138,231.83978 C185.862024,230.443116 186.475942,229.234421 187.355276,228.209137 C188.235763,227.186132 189.412824,226.394386 190.891074,225.836176 C192.367016,225.279105 194.23762,225 196.498269,225 C198.761226,225 200.629522,225.279105 202.108926,225.836176 C203.584868,226.394386 204.761929,227.186132 205.642416,228.209137 C206.52175,229.234421 207.134514,230.443116 207.481862,231.83978 C207.826903,233.234166 208,234.770952 208,236.445582 L208,243.611174 L200.647986,243.611174 L200.647986,236.445582 C200.647986,235.019298 200.364106,233.840222 199.798655,232.909493 C199.232051,231.978763 198.132306,231.513968 196.498269,231.513968 C194.864232,231.513968 193.764487,231.978763 193.199037,232.909493 C192.635894,233.840222 192.352014,235.019298 192.352014,236.445582 L192.352014,241.935405 C192.352014,244.541904 192.743214,246.605002 193.530229,248.1247 C194.314937,249.645538 195.275049,250.91575 196.403643,251.938755 C197.535698,252.964039 198.793538,253.909578 200.174853,254.777651 C201.556169,255.646864 202.814008,256.778093 203.94491,258.174757 C205.076966,259.570282 206.03477,261.371363 206.821785,263.571166 C207.605338,265.774387 208,268.705558 208,272.36582 L208,280.554418 C208,282.230187 207.826903,283.765834 207.481862,285.16022 C207.134514,286.556884 206.52175,287.766718 205.642416,288.790863 C204.761929,289.813868 203.584868,290.605614 202.108926,291.163824 C200.629522,291.722034 198.761226,292 196.498269,292 C194.23762,292 192.367016,291.722034 190.891074,291.163824 C189.412824,290.605614 188.235763,289.813868 187.355276,288.790863 C186.475942,287.766718 185.862024,286.556884 185.518138,285.16022 C185.170789,283.765834 185,282.230187 185,280.554418 L185,272.459235 L192.352014,272.459235 L192.352014,280.554418 C192.352014,281.981841 192.635894,283.159778 193.199037,284.090507 C193.764487,285.021237 194.864232,285.486032 196.498269,285.486032 C198.132306,285.486032 199.232051,285.021237 199.798655,284.090507 C200.364106,283.159778 200.647986,281.981841 200.647986,280.554418 L200.647986,272.644925 Z" id="Fill-20" fill="#FFFFFF" mask="url(#mask-2)"></path>
                <polygon id="Fill-21" fill="#FFFFFF" mask="url(#mask-2)" points="221 290 228 290 228 225 221 225"></polygon>
                <path d="M253.501145,292 C251.256768,292 249.401523,291.722034 247.937699,291.163824 C246.472731,290.604475 245.288167,289.813868 244.385151,288.790863 C243.479847,287.766718 242.856091,286.556884 242.513883,285.16022 C242.17282,283.764695 242,282.230187 242,280.554418 L242,236.444443 C242,234.770952 242.17282,233.234166 242.513883,231.838641 C242.856091,230.443116 243.479847,229.233282 244.385151,228.209137 C245.288167,227.184993 246.472731,226.394386 247.937699,225.836176 C249.401523,225.279105 251.256768,225 253.501145,225 C255.743232,225 257.598477,225.279105 259.062301,225.836176 C260.527269,226.394386 261.711833,227.184993 262.614849,228.209137 C263.517864,229.233282 264.14162,230.443116 264.486117,231.838641 C264.82718,233.234166 265,234.770952 265,236.444443 L265,280.554418 C265,282.230187 264.82718,283.764695 264.486117,285.16022 C264.14162,286.556884 263.517864,287.766718 262.614849,288.790863 C261.711833,289.813868 260.527269,290.604475 259.062301,291.163824 C257.598477,291.722034 255.743232,292 253.501145,292 L253.501145,292 Z M249.293939,280.554418 C249.293939,281.981841 249.589222,283.159778 250.182076,284.090507 C250.773786,285.021237 251.878234,285.486032 253.501145,285.486032 C255.119477,285.486032 256.226214,285.021237 256.817924,284.090507 C257.410778,283.159778 257.70835,281.981841 257.70835,280.554418 L257.70835,236.444443 C257.70835,235.018159 257.410778,233.839083 256.817924,232.909493 C256.226214,231.977624 255.119477,231.512829 253.501145,231.512829 C251.878234,231.512829 250.773786,231.977624 250.182076,232.909493 C249.589222,233.839083 249.293939,235.018159 249.293939,236.444443 L249.293939,280.554418 Z" id="Fill-22" fill="#FFFFFF" mask="url(#mask-2)"></path>
                <path d="M297.688268,271.892849 C297.438013,267.374303 297.24888,263.103566 297.123176,259.079502 C296.996318,255.054301 296.93635,250.784701 296.93635,246.263881 L296.93635,225 L304,225 L304,290 L296.93635,290 L284.310579,243.107151 C284.500865,247.502929 284.671546,251.712282 284.829541,255.735209 C284.986383,259.76041 285.065957,264.093667 285.065957,268.736119 L285.065957,290 L278,290 L278,225 L285.065957,225 L297.688268,271.892849 Z" id="Fill-23" fill="#FFFFFF" mask="url(#mask-2)"></path>
                <path d="M331.647986,272.644925 C331.647986,269.542873 331.253324,267.093585 330.469771,265.293643 C329.682756,263.49484 328.724951,262.0059 327.592895,260.826824 C326.461994,259.648887 325.204154,258.624743 323.822839,257.75553 C322.440369,256.887457 321.183684,255.833693 320.051628,254.590822 C318.920727,253.351368 317.962922,251.784963 317.178215,249.891606 C316.3912,248.000527 316,245.441875 316,242.21451 L316,236.445582 C316,234.770952 316.170789,233.234166 316.518138,231.83978 C316.862024,230.443116 317.475942,229.234421 318.355276,228.209137 C319.235763,227.186132 320.412824,226.394386 321.891074,225.836176 C323.367016,225.279105 325.23762,225 327.498269,225 C329.761226,225 331.629522,225.279105 333.108926,225.836176 C334.584868,226.394386 335.761929,227.186132 336.642416,228.209137 C337.52175,229.234421 338.134514,230.443116 338.481862,231.83978 C338.826903,233.234166 339,234.770952 339,236.445582 L339,243.611174 L331.647986,243.611174 L331.647986,236.445582 C331.647986,235.019298 331.364106,233.840222 330.798655,232.909493 C330.232051,231.978763 329.132306,231.513968 327.498269,231.513968 C325.864232,231.513968 324.764487,231.978763 324.199037,232.909493 C323.635894,233.840222 323.352014,235.019298 323.352014,236.445582 L323.352014,241.935405 C323.352014,244.541904 323.743214,246.605002 324.530229,248.1247 C325.314937,249.645538 326.275049,250.91575 327.403643,251.938755 C328.535698,252.964039 329.793538,253.909578 331.174853,254.777651 C332.556169,255.646864 333.814008,256.778093 334.94491,258.174757 C336.076966,259.570282 337.03477,261.371363 337.821785,263.571166 C338.605338,265.774387 339,268.705558 339,272.36582 L339,280.554418 C339,282.230187 338.826903,283.765834 338.481862,285.16022 C338.134514,286.556884 337.52175,287.766718 336.642416,288.790863 C335.761929,289.813868 334.584868,290.605614 333.108926,291.163824 C331.629522,291.722034 329.761226,292 327.498269,292 C325.23762,292 323.367016,291.722034 321.891074,291.163824 C320.412824,290.605614 319.235763,289.813868 318.355276,288.790863 C317.475942,287.766718 316.862024,286.556884 316.518138,285.16022 C316.170789,283.765834 316,282.230187 316,280.554418 L316,272.459235 L323.352014,272.459235 L323.352014,280.554418 C323.352014,281.981841 323.635894,283.159778 324.199037,284.090507 C324.764487,285.021237 325.864232,285.486032 327.498269,285.486032 C329.132306,285.486032 330.232051,285.021237 330.798655,284.090507 C331.364106,283.159778 331.647986,281.981841 331.647986,280.554418 L331.647986,272.644925 Z" id="Fill-24" fill="#FFFFFF" mask="url(#mask-2)"></path>
                <polygon id="Fill-25" fill="#FFFFFF" mask="url(#mask-2)" points="372.658683 161 102 75.0866021 102.340183 74 373 159.912258"></polygon>
                <path d="M100.146105,78.7902098 C97.7769445,78.0423689 96.461941,75.5152648 97.2097819,73.1461046 C97.9576229,70.7769445 100.485924,69.461941 102.855084,70.2097819 C105.223047,70.9576229 106.538051,73.4859236 105.79021,75.8550837 C105.042369,78.2230473 102.515265,79.5380508 100.146105,78.7902098" id="Fill-26" fill="#FFFFFF" mask="url(#mask-2)"></path>
                <path d="M371.145363,165.79021 C373.513584,166.538051 376.04216,165.223047 376.790082,162.855084 C377.538004,160.485924 376.224054,157.957623 373.854637,157.209782 C371.485219,156.461941 368.95784,157.776945 368.209918,160.146105 C367.461996,162.515265 368.775946,165.042369 371.145363,165.79021" id="Fill-27" fill="#FFFFFF" mask="url(#mask-2)"></path>
                <polygon id="Fill-28" fill="#FFFFFF" mask="url(#mask-2)" points="396.142373 285 174 31.7452002 174.856489 31 397 284.2548"></polygon>
                <path d="M172.1106,33.460195 C170.475624,31.5882314 170.668326,28.7455758 172.54029,27.1105999 C174.411056,25.4756241 177.254909,25.6683262 178.889885,27.5402898 C180.523664,29.4110564 180.332159,32.254909 178.460195,33.8898848 C176.588231,35.5236637 173.745576,35.3321585 172.1106,33.460195" id="Fill-29" fill="#FFFFFF" mask="url(#mask-2)"></path>
                <path d="M393.1106,287.460794 C394.745576,289.33156 397.588231,289.524263 399.460195,287.889287 C401.332159,286.255508 401.523664,283.411655 399.889885,281.540889 C398.254909,279.667728 395.411056,279.476223 393.54029,281.110002 C391.668326,282.746175 391.475624,285.58883 393.1106,287.460794" id="Fill-30" fill="#FFFFFF" mask="url(#mask-2)"></path>
                <polygon id="Fill-31" fill="#FFFFFF" mask="url(#mask-2)" points="332.898816 339 245 5.28822059 246.101184 5 334 338.711779"></polygon>
                <path d="M337.851592,338.358252 C338.482222,340.760918 337.045055,343.219822 334.641001,343.851599 C332.23934,344.482179 329.779044,343.045126 329.148413,340.64246 C328.517783,338.238597 329.95495,335.779693 332.357807,335.147916 C334.760665,334.518533 337.220961,335.955585 337.851592,338.358252" id="Fill-32" fill="#FFFFFF" mask="url(#mask-2)"></path>
                <path d="M250.851997,4.35780567 C250.221372,1.9549495 247.761098,0.517783035 245.357066,1.14841312 C242.95423,1.7790432 241.517076,4.23933816 242.148898,6.64219433 C242.779522,9.0450505 245.239796,10.482217 247.641435,9.85158688 C250.045467,9.2209568 251.481425,6.76066184 250.851997,4.35780567" id="Fill-33" fill="#FFFFFF" mask="url(#mask-2)"></path>
                <polygon id="Fill-34" fill="#949491" mask="url(#mask-2)" points="248.077578 16 246 5.2539764 246.921476 5 249 15.7460236"></polygon>
                <path d="M250.883835,4.48826862 C250.323843,2.06753229 247.909174,0.557414021 245.487326,1.11622958 C243.067871,1.67504513 241.556609,4.09099504 242.116602,6.51173138 C242.675398,8.93246771 245.090066,10.442586 247.511915,9.88377042 C249.931369,9.32495487 251.442631,6.90900496 250.883835,4.48826862" id="Fill-35" fill="#949491" mask="url(#mask-2)"></path>
                <polygon id="Fill-36" fill="#949491" mask="url(#mask-2)" points="400.164412 288 392 279.835588 392.835588 279 401 287.164412"></polygon>
                <path d="M396.317905,290.682095 C398.075112,292.439302 400.925187,292.439302 402.681197,290.682095 C404.439601,288.924888 404.439601,286.074813 402.681197,284.318803 C400.925187,282.560399 398.075112,282.560399 396.317905,284.318803 C394.560698,286.074813 394.560698,288.924888 396.317905,290.682095" id="Fill-37" fill="#949491" mask="url(#mask-2)"></path>
            </g>
        </g>
    </g>
</svg>